<svg width="260" height="55" viewBox="0 0 260 55" fill="none" xmlns="http://www.w3.org/2000/svg">
<path d="M65.96 15V43H72.72V15H65.96ZM70.2 20.56H75.68C77.04 20.56 78.1067 20.8667 78.88 21.48C79.6533 22.0933 80.04 22.9867 80.04 24.16C80.04 25.3067 79.6533 26.1867 78.88 26.8C78.1067 27.4133 77.04 27.72 75.68 27.72H70.2V33.28H75.68C78.0533 33.28 80.04 32.92 81.64 32.2C83.2667 31.4533 84.4933 30.4 85.32 29.04C86.1467 27.6533 86.56 26.0267 86.56 24.16C86.56 22.24 86.1467 20.6 85.32 19.24C84.4933 17.88 83.2667 16.84 81.64 16.12C80.04 15.3733 78.0533 15 75.68 15H70.2V20.56ZM95.4606 24.6H89.5006V43H95.4606V24.6ZM100.781 30.84L103.381 25.68C103.061 25.2 102.594 24.8267 101.981 24.56C101.367 24.2933 100.727 24.16 100.061 24.16C99.0473 24.16 98.074 24.4933 97.1406 25.16C96.2073 25.8267 95.4473 26.7333 94.8606 27.88C94.3006 29.0267 94.0206 30.3333 94.0206 31.8L95.4606 33.92C95.4606 33.04 95.5806 32.2933 95.8206 31.68C96.0606 31.0667 96.4073 30.6 96.8606 30.28C97.314 29.96 97.834 29.8 98.4206 29.8C98.954 29.8 99.394 29.8933 99.7406 30.08C100.114 30.2667 100.461 30.52 100.781 30.84ZM105.586 17.68C105.586 18.64 105.933 19.4267 106.626 20.04C107.319 20.6533 108.146 20.96 109.106 20.96C110.093 20.96 110.919 20.6533 111.586 20.04C112.279 19.4267 112.626 18.64 112.626 17.68C112.626 16.72 112.279 15.9467 111.586 15.36C110.919 14.7467 110.093 14.44 109.106 14.44C108.146 14.44 107.319 14.7467 106.626 15.36C105.933 15.9467 105.586 16.72 105.586 17.68ZM106.186 24.6V43H112.026V24.6H106.186ZM145.081 31.16C145.081 29.6667 144.894 28.4 144.521 27.36C144.147 26.32 143.534 25.5333 142.681 25C141.854 24.44 140.721 24.16 139.281 24.16C138.027 24.16 136.907 24.4267 135.921 24.96C134.934 25.4933 134.107 26.24 133.441 27.2C133.067 26.2133 132.454 25.4667 131.601 24.96C130.747 24.4267 129.601 24.16 128.161 24.16C126.907 24.16 125.827 24.44 124.921 25C124.041 25.56 123.347 26.3333 122.841 27.32V24.6H117.001V43H122.841V31.8C122.841 31.0533 122.947 30.4267 123.161 29.92C123.401 29.4133 123.721 29.04 124.121 28.8C124.547 28.5333 125.027 28.4 125.561 28.4C126.387 28.4 126.974 28.6933 127.321 29.28C127.694 29.84 127.881 30.68 127.881 31.8V43H133.961V31.8C133.961 31.0533 134.067 30.4267 134.281 29.92C134.521 29.4133 134.841 29.04 135.241 28.8C135.667 28.5333 136.147 28.4 136.681 28.4C137.507 28.4 138.094 28.6933 138.441 29.28C138.814 29.84 139.001 30.68 139.001 31.8V43H145.081V31.16ZM159.173 43.4C161.52 43.4 163.506 42.9467 165.133 42.04C166.786 41.1333 168.093 39.7733 169.053 37.96L163.653 36.64C163.2 37.44 162.586 38.04 161.813 38.44C161.066 38.84 160.16 39.04 159.093 39.04C158.16 39.04 157.373 38.84 156.733 38.44C156.093 38.0133 155.613 37.4 155.293 36.6C154.973 35.8 154.813 34.84 154.813 33.72C154.84 32.4933 155 31.48 155.293 30.68C155.613 29.8533 156.08 29.24 156.693 28.84C157.306 28.44 158.066 28.24 158.973 28.24C159.693 28.24 160.32 28.4 160.853 28.72C161.386 29.04 161.8 29.4933 162.093 30.08C162.386 30.6667 162.533 31.36 162.533 32.16C162.533 32.3467 162.48 32.5867 162.373 32.88C162.293 33.1467 162.186 33.3733 162.053 33.56L163.493 31.72H152.133V35.08H168.933C168.986 34.8933 169.013 34.6667 169.013 34.4C169.013 34.1067 169.013 33.8133 169.013 33.52C169.013 31.5467 168.626 29.8667 167.853 28.48C167.08 27.0933 165.96 26.04 164.493 25.32C163.026 24.5733 161.226 24.2 159.093 24.2C156.96 24.2 155.106 24.5867 153.533 25.36C151.986 26.1333 150.8 27.24 149.973 28.68C149.146 30.12 148.733 31.8267 148.733 33.8C148.733 35.7467 149.16 37.44 150.013 38.88C150.866 40.32 152.066 41.44 153.613 42.24C155.186 43.0133 157.04 43.4 159.173 43.4ZM179.103 29C179.103 27.2667 179.489 25.7867 180.263 24.56C181.036 23.3333 182.049 22.4 183.303 21.76C184.583 21.12 185.983 20.8 187.503 20.8C188.836 20.8 190.009 20.9733 191.023 21.32C192.036 21.64 192.943 22.0933 193.743 22.68C194.543 23.24 195.249 23.84 195.863 24.48V17.2C194.743 16.32 193.516 15.6267 192.183 15.12C190.849 14.6133 189.156 14.36 187.103 14.36C184.863 14.36 182.796 14.7067 180.903 15.4C179.009 16.0933 177.383 17.0933 176.023 18.4C174.663 19.7067 173.609 21.2533 172.863 23.04C172.116 24.8267 171.743 26.8133 171.743 29C171.743 31.1867 172.116 33.1733 172.863 34.96C173.609 36.7467 174.663 38.2933 176.023 39.6C177.383 40.9067 179.009 41.9067 180.903 42.6C182.796 43.2933 184.863 43.64 187.103 43.64C189.156 43.64 190.849 43.3867 192.183 42.88C193.516 42.3733 194.743 41.68 195.863 40.8V33.52C195.249 34.16 194.543 34.76 193.743 35.32C192.943 35.88 192.036 36.3333 191.023 36.68C190.009 37.0267 188.836 37.2 187.503 37.2C185.983 37.2 184.583 36.88 183.303 36.24C182.049 35.6 181.036 34.6667 180.263 33.44C179.489 32.1867 179.103 30.7067 179.103 29ZM208.39 30.32L216.23 43H224.15L215.39 30.32H208.39ZM201.39 15V43H208.15V15H201.39ZM205.63 20.72H211.11C212.016 20.72 212.79 20.8667 213.43 21.16C214.096 21.4533 214.603 21.88 214.95 22.44C215.296 22.9733 215.47 23.6267 215.47 24.4C215.47 25.1733 215.296 25.84 214.95 26.4C214.603 26.9333 214.096 27.3467 213.43 27.64C212.79 27.9067 212.016 28.04 211.11 28.04H205.63V33.28H211.59C213.99 33.28 215.99 32.8933 217.59 32.12C219.19 31.3467 220.403 30.28 221.23 28.92C222.056 27.5333 222.47 25.9467 222.47 24.16C222.47 22.3467 222.056 20.76 221.23 19.4C220.403 18.0133 219.19 16.9333 217.59 16.16C215.99 15.3867 213.99 15 211.59 15H205.63V20.72ZM234.488 28.72L242.128 40.4L249.808 28.72L251.488 43H258.608L254.088 13.6L242.128 30.68L230.208 13.6L225.688 43H232.808L234.488 28.72Z" fill="#303030"/>
<rect width="55" height="55" rx="9" fill="#F4F4F4"/>
<rect x="14" y="12" width="13" height="34" rx="3" fill="#263238"/>
<g style="mix-blend-mode:darken">
<rect x="19" y="12" width="25" height="25" rx="12.5" fill="#4BE3EB"/>
</g>
<path d="M26.4776 13C26.8033 13.3998 27 13.9188 27 14.4859V36C22.3543 34.3984 19 29.8114 19 24.4026C19 19.1988 22.1049 14.7556 26.4776 13Z" fill="#47CFFF"/>
</svg>
