<svg width="66" height="64" viewBox="0 0 66 64" fill="none" xmlns="http://www.w3.org/2000/svg">
<circle cx="44.3848" cy="42.4883" r="21.5" fill="#F5C9E9"/>
<path d="M10.3896 51.4835C7.82419 48.9181 9.52515 43.5364 8.21457 40.3854C6.904 37.2344 1.88477 34.4739 1.88477 30.9883C1.88477 27.5027 6.84823 24.8537 8.21457 21.5912C9.58092 18.3287 7.82419 13.0585 10.3896 10.4931C12.955 7.9277 18.3367 9.62867 21.4877 8.31809C24.6386 7.00751 27.3992 1.98828 30.8848 1.98828C34.3703 1.98828 37.0194 6.95174 40.2819 8.31809C43.5444 9.68444 48.8146 7.9277 51.38 10.4931C53.9453 13.0585 52.2444 18.4402 53.555 21.5912C54.8655 24.7421 59.8848 27.5027 59.8848 30.9883C59.8848 34.4739 54.9213 37.1229 53.555 40.3854C52.1886 43.6479 53.9453 48.9181 51.38 51.4835C48.8146 54.0489 43.4328 52.3479 40.2819 53.6585C37.1309 54.969 34.3703 59.9883 30.8848 59.9883C27.3992 59.9883 24.7502 55.0248 21.4877 53.6585C18.2252 52.2921 12.955 54.0489 10.3896 51.4835Z" stroke="#303030" stroke-width="3" stroke-linecap="round" stroke-linejoin="round"/>
<path d="M42.8848 23.9883L26.8757 39.9883L18.8848 31.9883" stroke="#303030" stroke-width="3" stroke-linecap="round" stroke-linejoin="round"/>
</svg>
