<svg width="56" height="56" viewBox="0 0 56 56" fill="none" xmlns="http://www.w3.org/2000/svg">
<ellipse cx="28" cy="27.6586" rx="28" ry="27.5" fill="#D5F2FC"/>
<path d="M19 38.1586C18.9985 37.8156 19.0674 37.4757 19.2025 37.1586C19.3377 36.8414 19.5365 36.5533 19.7875 36.3107C20.0385 36.0682 20.3368 35.8761 20.665 35.7455C20.9933 35.6149 21.345 35.5484 21.7 35.5499H37V18.1586H21.7C21.345 18.1572 20.9933 18.2236 20.665 18.3542C20.3368 18.4848 20.0385 18.6769 19.7875 18.9195C19.5365 19.162 19.3377 19.4501 19.2025 19.7673C19.0674 20.0844 18.9985 20.4243 19 20.7673V38.1586Z" stroke="#23C0F7" stroke-width="2" stroke-linecap="round" stroke-linejoin="round"/>
<path d="M19 38.1586V39.1586H35" stroke="#23C0F7" stroke-width="2" stroke-linecap="round" stroke-linejoin="round"/>
</svg>
