<svg width="64" height="64" viewBox="0 0 64 64" fill="none" xmlns="http://www.w3.org/2000/svg">
<circle cx="42.3848" cy="42.3727" r="21.5" fill="#B1E8F2"/>
<path d="M27.8848 40.2477C34.7193 40.2477 40.2598 34.7072 40.2598 27.8727C40.2598 21.0382 34.7193 15.4977 27.8848 15.4977C21.0502 15.4977 15.5098 21.0382 15.5098 27.8727C15.5098 34.7072 21.0502 40.2477 27.8848 40.2477Z" stroke="#393939" stroke-width="3" stroke-linecap="round" stroke-linejoin="round"/>
<path d="M42.2445 11.6562C42.8977 12.2578 43.5164 12.8766 44.1008 13.5125L51.1391 14.518C52.2859 16.5096 53.1698 18.6414 53.7687 20.8602L49.4891 26.5578C49.4891 26.5578 49.5664 28.3109 49.4891 29.1875L53.7687 34.8852C53.1726 37.1049 52.2885 39.237 51.1391 41.2273L44.1008 42.2328C44.1008 42.2328 42.8891 43.4961 42.2445 44.0891L41.2391 51.1273C39.2474 52.2741 37.1156 53.1581 34.8969 53.757L29.1992 49.4773C28.3244 49.5547 27.4444 49.5547 26.5695 49.4773L20.8719 53.757C18.6522 53.1608 16.52 52.2768 14.5297 51.1273L13.5242 44.0891C12.8883 43.4875 12.2695 42.8687 11.668 42.2328L4.62969 41.2273C3.48289 39.2357 2.59897 37.1039 2 34.8852L6.27969 29.1875C6.27969 29.1875 6.20234 27.4344 6.27969 26.5578L2 20.8602C2.5962 18.6404 3.48026 16.5083 4.62969 14.518L11.668 13.5125C12.2695 12.8766 12.8883 12.2578 13.5242 11.6562L14.5297 4.61797C16.5213 3.47117 18.6531 2.58725 20.8719 1.98828L26.5695 6.26797C27.4444 6.19061 28.3244 6.19061 29.1992 6.26797L34.8969 1.98828C37.1166 2.58448 39.2487 3.46854 41.2391 4.61797L42.2445 11.6562Z" stroke="#393939" stroke-width="3" stroke-linecap="round" stroke-linejoin="round"/>
</svg>
