<svg width="56" height="56" viewBox="0 0 56 56" fill="none" xmlns="http://www.w3.org/2000/svg">
<ellipse cx="28" cy="27.6586" rx="28" ry="27.5" fill="#E4F4E6"/>
<path d="M28.5 35.1586C32.0899 35.1586 35 32.2484 35 28.6586C35 25.0687 32.0899 22.1586 28.5 22.1586C24.9101 22.1586 22 25.0687 22 28.6586C22 32.2484 24.9101 35.1586 28.5 35.1586Z" stroke="#2FCF3F" stroke-width="2" stroke-linecap="round" stroke-linejoin="round"/>
<path d="M35.2122 20.0141C35.5402 20.3163 35.8509 20.627 36.1444 20.9464L39.6793 21.4514C40.2552 22.4517 40.6992 23.5223 41 24.6367L38.8506 27.4982C38.8506 27.4982 38.8894 28.3787 38.8506 28.8189L41 31.6805C40.7006 32.7953 40.2566 33.8661 39.6793 34.8657L36.1444 35.3707C36.1444 35.3707 35.5359 36.0052 35.2122 36.303L34.7072 39.8379C33.7069 40.4138 32.6362 40.8577 31.5219 41.1586L28.6604 39.0092C28.221 39.048 27.779 39.048 27.3396 39.0092L24.4781 41.1586C23.3633 40.8591 22.2924 40.4151 21.2928 39.8379L20.7878 36.303C20.4685 36.0009 20.1577 35.6901 19.8556 35.3707L16.3207 34.8657C15.7448 33.8655 15.3008 32.7948 15 31.6805L17.1494 28.8189C17.1494 28.8189 17.1106 27.9385 17.1494 27.4982L15 24.6367C15.2994 23.5218 15.7434 22.451 16.3207 21.4514L19.8556 20.9464C20.1577 20.627 20.4685 20.3163 20.7878 20.0141L21.2928 16.4793C22.2931 15.9033 23.3638 15.4594 24.4781 15.1586L27.3396 17.308C27.779 17.2691 28.221 17.2691 28.6604 17.308L31.5219 15.1586C32.6367 15.458 33.7076 15.902 34.7072 16.4793L35.2122 20.0141Z" stroke="#2FCF3F" stroke-width="2" stroke-linecap="round" stroke-linejoin="round"/>
</svg>
