<svg width="56" height="56" viewBox="0 0 56 56" fill="none" xmlns="http://www.w3.org/2000/svg">
<ellipse cx="28" cy="27.6587" rx="28" ry="27.5" fill="#DFF3F2"/>
<path d="M30.7273 36.2756V30.9775C30.7273 30.7433 30.6315 30.5187 30.461 30.3531C30.2905 30.1875 30.0593 30.0945 29.8182 30.0945H26.1818C25.9407 30.0945 25.7095 30.1875 25.539 30.3531C25.3685 30.5187 25.2727 30.7433 25.2727 30.9775V36.2756C25.2727 36.5097 25.1769 36.7343 25.0065 36.8999C24.836 37.0655 24.6047 37.1586 24.3636 37.1586H18.9091C18.668 37.1586 18.4368 37.0655 18.2663 36.8999C18.0958 36.7343 18 36.5097 18 36.2756V26.0657C18.002 25.9435 18.0292 25.8229 18.08 25.7111C18.1307 25.5992 18.204 25.4984 18.2955 25.4145L27.3864 17.3901C27.554 17.2412 27.7729 17.1586 28 17.1586C28.2271 17.1586 28.446 17.2412 28.6136 17.3901L37.7045 25.4145C37.796 25.4984 37.8693 25.5992 37.92 25.7111C37.9708 25.8229 37.998 25.9435 38 26.0657V36.2756C38 36.5097 37.9042 36.7343 37.7337 36.8999C37.5632 37.0655 37.332 37.1586 37.0909 37.1586H31.6364C31.3953 37.1586 31.164 37.0655 30.9935 36.8999C30.8231 36.7343 30.7273 36.5097 30.7273 36.2756Z" stroke="#38CEC5" stroke-width="2" stroke-linecap="round" stroke-linejoin="round"/>
</svg>
