<svg width="23" height="23" viewBox="0 0 23 23" fill="none" xmlns="http://www.w3.org/2000/svg">
<path d="M15.766 2.48405C16.9948 2.48759 18.1723 2.95887 19.0411 3.79499C19.91 4.63111 20.3998 5.76411 20.4035 6.94656V15.8706C20.3998 17.053 19.91 18.186 19.0411 19.0222C18.1723 19.8583 16.9948 20.3296 15.766 20.3331H6.49213C5.26333 20.3296 4.08591 19.8583 3.21701 19.0222C2.34812 18.186 1.85835 17.053 1.85468 15.8706V6.94656C1.85835 5.76411 2.34812 4.63111 3.21701 3.79499C4.08591 2.95887 5.26333 2.48759 6.49213 2.48405H15.766ZM15.766 0.699341H6.49213C2.92138 0.699341 0 3.51052 0 6.94656V15.8706C0 19.3066 2.92138 22.1178 6.49213 22.1178H15.766C19.3368 22.1178 22.2582 19.3066 22.2582 15.8706V6.94656C22.2582 3.51052 19.3368 0.699341 15.766 0.699341Z" fill="white"/>
<path d="M17.1571 6.94696C16.8819 6.94696 16.613 6.86845 16.3842 6.72136C16.1554 6.57427 15.9771 6.3652 15.8718 6.12059C15.7665 5.87598 15.739 5.60682 15.7927 5.34715C15.8464 5.08748 15.9788 4.84895 16.1734 4.66174C16.368 4.47452 16.6158 4.34703 16.8857 4.29538C17.1555 4.24372 17.4352 4.27023 17.6894 4.37155C17.9436 4.47287 18.1609 4.64445 18.3138 4.86459C18.4666 5.08473 18.5482 5.34355 18.5482 5.60831C18.5486 5.78421 18.5129 5.95845 18.4431 6.12104C18.3733 6.28362 18.2709 6.43134 18.1416 6.55572C18.0124 6.6801 17.8589 6.77869 17.6899 6.84583C17.5209 6.91297 17.3399 6.94734 17.1571 6.94696ZM11.129 7.83908C11.8627 7.83908 12.58 8.04845 13.1901 8.44072C13.8002 8.83298 14.2757 9.39053 14.5565 10.0428C14.8372 10.6952 14.9107 11.4129 14.7676 12.1054C14.6244 12.7979 14.2711 13.434 13.7523 13.9333C13.2334 14.4325 12.5724 14.7725 11.8528 14.9103C11.1331 15.048 10.3872 14.9773 9.70929 14.7071C9.03141 14.4369 8.452 13.9794 8.04436 13.3923C7.63672 12.8053 7.41914 12.115 7.41914 11.409C7.42019 10.4625 7.81138 9.55507 8.50689 8.8858C9.2024 8.21653 10.1454 7.84009 11.129 7.83908ZM11.129 6.05437C10.0284 6.05437 8.95259 6.36841 8.0375 6.95678C7.12242 7.54516 6.4092 8.38143 5.98803 9.35986C5.56686 10.3383 5.45667 11.4149 5.67138 12.4536C5.88609 13.4923 6.41606 14.4464 7.19427 15.1953C7.97249 15.9441 8.96399 16.4541 10.0434 16.6607C11.1228 16.8673 12.2417 16.7613 13.2585 16.356C14.2752 15.9507 15.1443 15.2644 15.7557 14.3839C16.3672 13.5033 16.6935 12.468 16.6935 11.409C16.6935 9.98885 16.1073 8.62688 15.0637 7.6227C14.0202 6.61851 12.6048 6.05437 11.129 6.05437Z" fill="white"/>
</svg>
