<svg width="56" height="56" viewBox="0 0 56 56" fill="none" xmlns="http://www.w3.org/2000/svg">
<ellipse cx="28" cy="27.6586" rx="28" ry="27.5" fill="#FFF1DB"/>
<path d="M23 39.1586H34" stroke="#FFB545" stroke-width="2" stroke-linecap="round" stroke-linejoin="round"/>
<path d="M28 35.1586V29.1586" stroke="#FFB545" stroke-width="2" stroke-linecap="round" stroke-linejoin="round"/>
<path d="M24 25.1586L28 29.1586L32 25.1586" stroke="#FFB545" stroke-width="2" stroke-linecap="round" stroke-linejoin="round"/>
<path d="M22.4539 31.409C21.3824 30.5676 20.5146 29.4909 19.9162 28.2606C19.3178 27.0302 19.0045 25.6785 19.0001 24.3077C18.9776 19.3765 22.9039 15.2747 27.7865 15.1611C29.6762 15.1159 31.532 15.6727 33.0907 16.7525C34.6495 17.8323 35.832 19.3803 36.4707 21.1771C37.1093 22.9738 37.1717 24.928 36.6489 26.7625C36.126 28.5971 35.0446 30.2188 33.5579 31.3977C33.2295 31.6541 32.9635 31.9829 32.7802 32.359C32.5969 32.7352 32.5012 33.1486 32.5004 33.5679V34.2496C32.5004 34.4907 32.4055 34.7219 32.2368 34.8923C32.068 35.0628 31.839 35.1586 31.6003 35.1586H24.4002C24.1615 35.1586 23.9326 35.0628 23.7638 34.8923C23.595 34.7219 23.5002 34.4907 23.5002 34.2496V33.5679C23.4974 33.1518 23.4019 32.7417 23.2207 32.368C23.0396 31.9943 22.7775 31.6665 22.4539 31.409V31.409Z" stroke="#FFB545" stroke-width="2" stroke-linecap="round" stroke-linejoin="round"/>
</svg>
