<svg width="23" height="23" viewBox="0 0 23 23" fill="none" xmlns="http://www.w3.org/2000/svg">
<path d="M20.7394 0.533569H2.58746C1.5956 0.533569 0.729004 1.24724 0.729004 2.22744V20.4197C0.729004 21.4053 1.5956 22.2835 2.58746 22.2835H20.7341C21.7313 22.2835 22.4789 21.3994 22.4789 20.4197V2.22744C22.4848 1.24724 21.7313 0.533569 20.7394 0.533569ZM7.471 18.6632H4.35513V8.97526H7.471V18.6632ZM6.02084 7.50229H5.99851C5.00131 7.50229 4.35561 6.75997 4.35561 5.83075C4.35561 4.88453 5.0183 4.15969 6.03783 4.15969C7.05736 4.15969 7.68121 4.87919 7.70355 5.83075C7.70306 6.75997 7.05736 7.50229 6.02084 7.50229ZM18.8586 18.6632H15.7428V13.366C15.7428 12.097 15.2893 11.2299 14.162 11.2299C13.3008 11.2299 12.791 11.8125 12.5643 12.38C12.4793 12.5839 12.4565 12.8616 12.4565 13.1451V18.6632H9.34062V8.97526H12.4565V10.3235C12.9099 9.67776 13.6183 8.74854 15.2665 8.74854C17.3119 8.74854 18.8591 10.0967 18.8591 13.0034L18.8586 18.6632Z" fill="white"/>
</svg>
