<svg width="56" height="56" viewBox="0 0 56 56" fill="none" xmlns="http://www.w3.org/2000/svg">
<ellipse cx="28" cy="27.6586" rx="28" ry="27.5" fill="#FFE4E4"/>
<path d="M39 18.1586H17C16.4477 18.1586 16 18.6063 16 19.1586V37.1586C16 37.7109 16.4477 38.1586 17 38.1586H39C39.5523 38.1586 40 37.7109 40 37.1586V19.1586C40 18.6063 39.5523 18.1586 39 18.1586Z" stroke="#FF4F4F" stroke-width="2" stroke-linecap="round" stroke-linejoin="round"/>
<path d="M20.5 23.9086C21.1904 23.9086 21.75 23.3489 21.75 22.6586C21.75 21.9682 21.1904 21.4086 20.5 21.4086C19.8096 21.4086 19.25 21.9682 19.25 22.6586C19.25 23.3489 19.8096 23.9086 20.5 23.9086Z" fill="#FF4F4F"/>
<path d="M24 23.9086C24.6904 23.9086 25.25 23.3489 25.25 22.6586C25.25 21.9682 24.6904 21.4086 24 21.4086C23.3096 21.4086 22.75 21.9682 22.75 22.6586C22.75 23.3489 23.3096 23.9086 24 23.9086Z" fill="#FF4F4F"/>
</svg>
