<svg width="790" height="362" viewBox="0 0 790 362" fill="none" xmlns="http://www.w3.org/2000/svg">
<rect x="47" width="743" height="361" rx="10" fill="#EBF9ED"/>
<path d="M229.903 215.616H85.2837V231.591H229.903V215.616Z" fill="black"/>
<path d="M212.108 361.429L212.108 231.1H198.063L198.063 361.429H212.108Z" fill="black"/>
<path d="M34.605 273.407L10.5632 276.167L0.0755316 184.231C-0.660443 177.608 4.06208 171.597 10.7472 170.861C17.371 170.125 23.3814 174.848 24.1174 181.533L34.605 273.407Z" fill="black"/>
<path d="M167.816 340.198L150.828 340.259C148.068 340.259 145.492 338.603 144.633 335.966V335.905L142.18 328.484L120.285 326.092L126.172 357.371C126.602 359.763 128.687 361.357 130.956 361.357V361.419L131.14 361.357C131.57 361.357 131.999 361.296 132.49 361.112L168.675 349.03C171.067 348.232 172.355 345.656 171.558 343.326C171.067 341.609 169.595 340.382 167.816 340.198Z" fill="black"/>
<path d="M102.867 262.246L117.893 341.732L144.45 333.023L138.194 252.679L102.867 262.246Z" fill="url(#paint0_linear_988_6153)"/>
<path d="M20.6217 282.729H102.867C108.509 282.729 113.109 278.129 113.109 272.487C113.109 266.844 108.509 262.245 102.867 262.245H20.6217C14.9792 262.245 10.3794 266.844 10.3794 272.487C10.3794 278.191 14.9792 282.729 20.6217 282.729Z" fill="black"/>
<path d="M72.5077 272.487H64.5959V345.533H72.5077V272.487Z" fill="black"/>
<path d="M36.7513 359.394C37.8553 361.295 40.2472 361.97 42.1485 360.866L72.5074 343.325L68.5209 336.456L38.1619 353.997C36.2607 355.039 35.6474 357.493 36.7513 359.394Z" fill="black"/>
<path d="M100.352 359.393C99.2481 361.295 96.8562 361.969 94.9549 360.865L64.5959 343.263L68.5825 336.394L98.9414 353.935C100.781 355.039 101.456 357.492 100.352 359.393Z" fill="black"/>
<path d="M103.357 176.871L111.453 143.201C112.373 138.233 113.232 135.963 114.642 133.94L118.69 128.113C119.12 127.438 120.04 127.254 120.714 127.684C121.327 128.052 121.634 128.788 121.389 129.462L119.242 136.147C119.058 136.822 119.856 137.251 120.346 136.761L132.98 121.735C133.471 121.121 134.33 120.999 135.004 121.428C135.679 121.857 135.924 122.777 135.495 123.513L131.263 130.934C131.079 131.241 131.508 131.548 131.754 131.302L135.311 127.806C135.863 127.254 136.783 127.132 137.458 127.622C137.948 127.929 138.255 128.542 138.194 129.094L137.887 135.964C137.764 139.091 136.476 142.097 134.268 144.305L122.186 156.693L121.634 169.88L103.357 176.871Z" fill="#EEB08C"/>
<path d="M65.516 156.081C62.5721 150.132 65.0253 142.956 70.9745 140.013C76.9236 137.069 84.0994 139.522 87.0433 145.471L100.291 172.211L78.7635 182.883L65.516 156.081Z" fill="#D8D2CB"/>
<path d="M100.291 172.149L103.051 177.791L103.357 176.871L121.634 169.818V198.521C121.634 204.961 118.261 210.726 113.109 213.977C110.901 215.387 108.325 216.307 105.565 216.675C105.504 216.675 105.443 216.675 105.381 216.675C97.9602 217.534 90.9071 213.18 88.1472 206.249L78.7021 182.821L100.291 172.149Z" fill="#D8D2CB"/>
<path d="M23.8104 140.993L37.5486 138.724H77.4753L85.3257 222.342V231.457H24.8531L18.7812 153.566L23.8104 140.993Z" fill="#D8D2CB"/>
<path d="M12.8937 152.707C13.0164 146.083 18.5362 140.808 25.1599 140.992C31.7837 141.115 37.0582 146.635 36.8742 153.259L36.1996 183.066L12.1577 182.514L12.8937 152.707Z" fill="#D8D2CB"/>
<path d="M69.4413 105.482C68.5826 97.1413 61.8362 90.3948 53.5565 89.5362C42.7622 88.3709 33.5625 96.8346 33.5625 107.384C33.5625 110.634 36.9357 113.639 38.4077 116.215L38.285 140.257C38.2237 147.065 43.6822 152.646 50.4286 152.769C57.359 152.953 63.0628 147.433 63.1855 140.502L63.3082 134.737C66.7427 134.737 69.564 131.916 69.564 128.482V107.629C69.564 106.954 69.5026 106.218 69.4413 105.482Z" fill="#EEB08C"/>
<path d="M53.5566 89.5362C52.882 89.4749 52.2073 89.4136 51.5327 89.4136C51.4713 89.4136 51.4713 89.4136 51.41 89.4136C40.3704 89.4749 31.416 98.4906 31.416 109.53V117.871L40.4931 109.837H49.0181V105.482H69.4414C68.5828 97.2027 61.8977 90.4562 53.5566 89.5362Z" fill="black"/>
<path d="M45.338 125.907H40.4315H39.4502C35.0343 125.907 31.4158 122.288 31.4158 117.872C31.4158 113.456 35.0343 109.838 39.4502 109.838C41.1061 109.838 42.5781 110.329 43.866 111.187" fill="#EEB08C"/>
<path d="M102.253 209.806L106.608 206.863C106.976 206.617 107.466 206.617 107.834 206.924C108.264 207.231 108.386 207.782 108.141 208.273L106.608 211.34L102.253 209.806Z" fill="#EEB08C"/>
<path d="M85 222.5C88.3732 224.217 92.1336 225.077 95.8748 225.077H99.0641H109.552C110.104 225.077 110.656 224.831 111.024 224.402C111.698 223.605 111.637 222.378 110.778 221.703L104.829 216.92C104.645 216.736 104.523 216.49 104.584 216.245C104.707 215.816 105.197 215.632 105.565 215.877L113.845 221.151C114.336 221.458 115.01 221.335 115.378 220.845C115.746 220.354 115.685 219.741 115.256 219.311L106.608 211.216L99.432 208.885C96.4268 207.904 93.2376 207.781 90.2323 208.579L85.2645 209.866C84.4672 210.05 83.8586 210.061 83 210L85 222.5Z" fill="#EEB08C"/>
<path d="M83 210L35.8316 201.649L36.9356 153.565C37.0582 147.064 32.1517 141.422 25.6506 140.992C18.8429 140.563 13.0777 145.96 12.9551 152.706L10.9925 209.499C10.6858 217.963 17.6162 224.832 26.0186 224.587L85 222.5L83 210Z" fill="#D8D2CB"/>
<path d="M83 210L35.8316 201.649L36.9356 153.565C37.0582 147.064 32.1517 141.422 25.6506 140.992C18.8429 140.563 13.0777 145.96 12.9551 152.706L10.9925 209.499C10.6858 217.963 17.6162 224.832 26.0186 224.587L85 222.5L83 210Z" fill="url(#paint1_linear_988_6153)"/>
<path d="M134.268 352.585L118.138 347.372C115.501 346.513 113.6 344.121 113.6 341.361V341.3V333.511L93.6057 324.373L89.4352 355.958C89.1285 358.35 90.6005 360.497 92.7471 361.233V361.294H92.9311C93.3604 361.417 93.7897 361.478 94.2803 361.478L132.428 361.294C134.943 361.294 136.967 359.27 136.967 356.755C136.906 354.916 135.863 353.321 134.268 352.585Z" fill="#3A3838"/>
<path d="M24.6692 231.456V246.482C24.6692 256.418 32.7036 264.452 42.6393 264.452H108.264L86.3071 338.418H114.274L137.948 259.484C142.119 245.501 131.692 231.456 117.095 231.456H67.6011H24.6692Z" fill="#63BB5D"/>
<path d="M117.69 361.396L117.69 231.067H103.645L103.645 361.396H117.69Z" fill="black"/>
<path d="M189.037 181.551L161.805 195.166C161.192 195.473 160.456 195.228 160.15 194.614C159.966 194.308 159.598 194.124 159.23 194.308L157.451 195.166C157.144 195.35 156.96 195.718 157.144 196.086L158.616 199.092C158.923 199.705 159.659 199.95 160.272 199.644L162.173 198.724L187.197 186.212V212.891H158.064C157.39 212.891 156.838 213.443 156.838 214.118V214.976C156.838 215.651 157.39 216.203 158.064 216.203H187.197H189.282C189.957 216.203 190.508 215.651 190.508 214.976V212.891V182.777C190.508 182.103 189.957 181.551 189.282 181.551H189.037Z" fill="#3A3838"/>
<path d="M182.291 145.243L182.475 177.381L158.801 189.218C158.187 189.525 157.942 190.261 158.249 190.874L160.15 194.615C160.457 195.228 161.193 195.474 161.806 195.167L189.037 181.552L188.976 145.427C188.976 144.753 188.485 144.201 187.749 144.201L183.579 144.078C182.904 144.078 182.291 144.569 182.291 145.243Z" fill="black"/>
<path d="M167.011 38.2041V103.535C167.011 105.889 165.161 107.739 162.807 107.739H110.844C108.995 107.739 107.145 108.328 105.715 109.505L96.2984 116.904C93.5237 119.09 89.4878 117.072 89.4878 113.625V107.823V95.4634V38.2041C89.4878 35.8498 91.3376 34 93.6919 34H162.807C165.161 34 167.011 35.8498 167.011 38.2041Z" fill="#63BB5D"/>
<path d="M39.8688 120.619C38.0152 120.619 36.5166 119.121 36.5166 117.269C36.5166 115.417 38.0152 113.919 39.8688 113.919V120.619Z" fill="black" stroke="black"/>
<path d="M53.2783 127.276C45.864 127.276 39.8694 121.286 39.8694 113.877" stroke="black" stroke-miterlimit="10"/>
<path d="M55.4075 129.404C56.5836 129.404 57.5371 128.451 57.5371 127.276C57.5371 126.101 56.5836 125.148 55.4075 125.148C54.2313 125.148 53.2778 126.101 53.2778 127.276C53.2778 128.451 54.2313 129.404 55.4075 129.404Z" fill="black"/>
<defs>
<linearGradient id="paint0_linear_988_6153" x1="98.7117" y1="322.584" x2="153.426" y2="267.87" gradientUnits="userSpaceOnUse">
<stop stop-color="#63BB5D"/>
<stop offset="0.7045" stop-color="#396B35"/>
</linearGradient>
<linearGradient id="paint1_linear_988_6153" x1="70.1491" y1="224.864" x2="18.0187" y2="182.823" gradientUnits="userSpaceOnUse">
<stop stop-color="#ACA8A4"/>
<stop offset="1" stop-color="#D8D2CB"/>
</linearGradient>
</defs>
</svg>
