<svg width="67" height="38" viewBox="0 0 67 38" fill="none" xmlns="http://www.w3.org/2000/svg">
<path d="M50.2554 24.8301C50.2554 25.5167 50.8158 26.0839 51.493 25.9706C53.0231 25.7146 54.4473 24.988 55.5587 23.8767C56.9652 22.4701 57.7554 20.5625 57.7554 18.5734C57.7554 16.5842 56.9652 14.6766 55.5587 13.2701C54.4473 12.1587 53.0231 11.4322 51.493 11.1762C50.8158 11.0628 50.2554 11.63 50.2554 12.3167C50.2554 13.0033 50.8204 13.5447 51.486 13.7133C52.3546 13.9333 53.1561 14.3841 53.8004 15.0283C54.7406 15.9685 55.2688 17.2437 55.2688 18.5734C55.2688 19.903 54.7406 21.1782 53.8004 22.1184C53.1561 22.7627 52.3546 23.2135 51.486 23.4334C50.8204 23.602 50.2554 24.1434 50.2554 24.8301Z" fill="#49E4EB"/>
<path d="M52.2554 31.2013C52.2554 32.2352 53.097 33.0858 54.1223 32.9527C57.2792 32.5429 60.233 31.1018 62.5084 28.8264C65.2277 26.1071 66.7554 22.419 66.7554 18.5734C66.7554 14.7277 65.2277 11.0396 62.5084 8.32032C60.233 6.04489 57.2792 4.60381 54.1223 4.194C53.097 4.0609 52.2554 4.91152 52.2554 5.94544C52.2554 6.97935 53.0998 7.80093 54.1181 7.97998C56.279 8.35997 58.2884 9.39529 59.8609 10.9678C61.878 12.9849 63.0112 15.7207 63.0112 18.5734C63.0112 21.426 61.878 24.1618 59.8609 26.1789C58.2884 27.7514 56.279 28.7868 54.1181 29.1667C53.0998 29.3458 52.2554 30.1674 52.2554 31.2013Z" fill="#49E4EB"/>
<path d="M3.18805 11.1621L20.5553 6.06099H20.5765L40.4187 0.212824C40.924 0.0614598 41.4576 0.0328309 41.976 0.129276C42.4944 0.22572 42.9828 0.444504 43.4014 0.767761C43.8255 1.08232 44.1694 1.49407 44.4047 1.96906C44.6401 2.44406 44.7603 2.96871 44.7552 3.49975V33.0821C44.7552 33.9841 44.4016 34.8495 43.7714 35.4893C43.1412 36.1292 42.2858 36.4914 41.3918 36.4971C41.0632 36.4979 40.736 36.4548 40.4187 36.369L22.7553 31.1612V33.6584C22.7553 34.5641 22.3987 35.4327 21.764 36.0731C21.1292 36.7136 20.2683 37.0734 19.3707 37.0734H12.6015C11.7038 37.0734 10.8429 36.7136 10.2082 36.0731C9.57347 35.4327 9.21688 34.5641 9.21688 33.6584V27.1912L3.18805 25.4197C2.48619 25.2086 1.87049 24.7748 1.43227 24.1827C0.994057 23.5906 0.756683 22.8717 0.755371 22.1328V14.4491C0.756683 13.7101 0.994057 12.9912 1.43227 12.3992C1.87049 11.8071 2.48619 11.3733 3.18805 11.1621ZM12.6015 33.6584H19.3707V30.1794L12.6015 28.173V33.6584ZM4.13997 22.1328L11.4169 24.2672L19.3707 26.615V9.96689L4.13997 14.4491V22.1328Z" fill="#49E4EB"/>
</svg>
