<svg width="56" height="56" viewBox="0 0 56 56" fill="none" xmlns="http://www.w3.org/2000/svg">
<ellipse cx="28" cy="27.6586" rx="28" ry="27.5" fill="#FFE2ED"/>
<path d="M39 19.0909V35.2263C39.0001 35.3705 38.9673 35.5128 38.9041 35.642C38.8408 35.7712 38.7489 35.8836 38.6356 35.9705C38.5223 36.0575 38.3907 36.1164 38.2511 36.1428C38.1115 36.1692 37.9678 36.1623 37.8312 36.1227L17.6646 30.1505C17.4729 30.0948 17.3044 29.9772 17.1845 29.8154C17.0646 29.6536 16.9998 29.4566 17 29.2541V25.0631C16.9998 24.8606 17.0646 24.6635 17.1845 24.5017C17.3044 24.34 17.4729 24.2223 17.6646 24.1667L37.8312 18.1945C37.9678 18.1548 38.1115 18.1479 38.2511 18.1743C38.3907 18.2007 38.5223 18.2597 38.6356 18.3466C38.7489 18.4335 38.8408 18.546 38.9041 18.6751C38.9673 18.8043 39.0001 18.9466 39 19.0909Z" stroke="#FF80AD" stroke-width="2" stroke-linecap="round" stroke-linejoin="round"/>
<path d="M22 32.0352V36.2334C22 36.4787 22.0878 36.7141 22.2441 36.8876C22.4004 37.0611 22.6123 37.1586 22.8333 37.1586H26.1667C26.3877 37.1586 26.5996 37.0611 26.7559 36.8876C26.9122 36.7141 27 36.4787 27 36.2334V22.1586" stroke="#FF80AD" stroke-width="2" stroke-linecap="round" stroke-linejoin="round"/>
</svg>
