<svg width="56" height="56" viewBox="0 0 56 56" fill="none" xmlns="http://www.w3.org/2000/svg">
<ellipse cx="28" cy="27.6586" rx="28" ry="27.5" fill="#FFE7DF"/>
<path d="M17.8571 26.1586H23V36.1586H17.8571C17.6298 36.1586 17.4118 36.0775 17.2511 35.9333C17.0903 35.789 17 35.5934 17 35.3893V26.9278C17 26.7238 17.0903 26.5281 17.2511 26.3839C17.4118 26.2396 17.6298 26.1586 17.8571 26.1586V26.1586Z" stroke="#BC7964" stroke-width="2" stroke-linecap="round" stroke-linejoin="round"/>
<path d="M23 25.4194L27.0043 17.1586C27.8539 17.1586 28.6687 17.5067 29.2695 18.1264C29.8702 18.7461 30.2077 19.5865 30.2077 20.4629V22.9412H36.4044C36.6315 22.9406 36.8561 22.9902 37.0631 23.0865C37.2701 23.1829 37.4547 23.3239 37.6045 23.4999C37.7543 23.676 37.8659 23.8831 37.9317 24.1073C37.9975 24.3315 38.0161 24.5677 37.9861 24.7999L36.7848 34.7129C36.7362 35.1109 36.5489 35.477 36.2579 35.743C35.9668 36.009 35.5919 36.1567 35.2031 36.1586H23" stroke="#BC7964" stroke-width="2" stroke-linecap="round" stroke-linejoin="round"/>
</svg>
