<svg width="22" height="18" viewBox="0 0 22 18" fill="none" xmlns="http://www.w3.org/2000/svg">
<path d="M21.7294 2.86C20.924 3.20971 20.0718 3.4401 19.1998 3.5439C20.1162 3.00768 20.8054 2.15579 21.138 1.14802C20.2716 1.65428 19.3253 2.00949 18.3396 2.19845C17.9246 1.76376 17.4254 1.41796 16.8724 1.18205C16.3194 0.946146 15.7242 0.825069 15.123 0.826179C12.6887 0.826179 10.7187 2.76613 10.7187 5.15755C10.717 5.49019 10.7551 5.82184 10.8323 6.14541C9.08679 6.06364 7.37753 5.61866 5.81393 4.83896C4.25032 4.05925 2.8668 2.96199 1.75188 1.61736C1.36074 2.27628 1.15388 3.02809 1.15293 3.79422C1.15293 5.29612 1.93707 6.62369 3.12111 7.40146C2.4196 7.38483 1.73246 7.19929 1.11804 6.8606V6.91424C1.11804 9.01511 2.6389 10.7629 4.65182 11.1607C4.27329 11.2615 3.88323 11.3126 3.49148 11.3127C3.21351 11.3131 2.93618 11.2862 2.66351 11.2322C3.2231 12.9531 4.85177 14.2047 6.78103 14.2405C5.21336 15.4478 3.28868 16.1003 1.30949 16.0955C0.958176 16.095 0.60719 16.0741 0.258301 16.0329C2.27174 17.3177 4.6122 17.9972 7.00111 17.9908C15.1136 17.9908 19.5456 11.3886 19.5456 5.66265C19.5456 5.47492 19.5407 5.28718 19.5317 5.10391C20.3919 4.49245 21.1361 3.73258 21.7294 2.86Z" fill="white"/>
</svg>
