<svg width="27" height="20" viewBox="0 0 27 20" fill="none" xmlns="http://www.w3.org/2000/svg">
<path d="M26.3119 5.10379C26.3119 2.87729 24.6309 1.08619 22.5537 1.08619C19.74 0.958047 16.8705 0.908569 13.938 0.908569H13.0239C10.0985 0.908569 7.22391 0.958047 4.41028 1.08669C2.33814 1.08669 0.65707 2.88768 0.65707 5.11418C0.5301 6.8751 0.476265 8.63651 0.479313 10.3979C0.474234 12.1593 0.531793 13.9224 0.651991 15.6871C0.651991 17.9136 2.33306 19.7195 4.4052 19.7195C7.36104 19.8531 10.3931 19.9125 13.4759 19.9076C16.5638 19.9175 19.5873 19.8548 22.5465 19.7195C24.6238 19.7195 26.3048 17.9136 26.3048 15.6871C26.4267 13.9207 26.4826 12.1593 26.4775 10.393C26.489 8.63156 26.4338 6.8685 26.3119 5.10379ZM10.9924 15.2517V5.5293L18.3566 10.388L10.9924 15.2517Z" fill="white"/>
</svg>
